HIERARCHY
ROOT Hips
{
	OFFSET 0.000000 0.000000 0.000000
	CHANNELS 6 Xposition Yposition Zposition Zrotation Yrotation Xrotation 
	JOINT LowerBack
	{
		OFFSET 0.000000 0.000000 0.000000
		CHANNELS 3 Zrotation Yrotation Xrotation
		JOINT Spine
		{
			OFFSET 0.028270 2.035590 -0.193380
			CHANNELS 3 Zrotation Yrotation Xrotation
			JOINT Spine1
			{
				OFFSET 0.056720 2.048850 -0.042750
				CHANNELS 3 Zrotation Yrotation Xrotation
				JOINT Neck
				{
					OFFSET 0.000000 0.000000 0.000000
					CHANNELS 3 Zrotation Yrotation Xrotation
					JOINT Neck1
					{
						OFFSET -0.054170 1.746240 0.172020
						CHANNELS 3 Zrotation Yrotation Xrotation
						JOINT Head
						{
							OFFSET 0.104070 1.761360 -0.123970
							CHANNELS 3 Zrotation Yrotation Xrotation
							End Site
							{
								OFFSET 0.000000 0.000000 0.000000
							}
						}
					}
				}
				JOINT LeftShoulder
				{
					OFFSET 0.000000 0.000000 0.000000
					CHANNELS 3 Zrotation Yrotation Xrotation
					JOINT LeftArm
					{
						OFFSET 3.362410 1.200890 -0.311210
						CHANNELS 3 Zrotation Yrotation Xrotation
						JOINT LeftForeArm
						{
							OFFSET 4.983000 -0.000000 -0.000000
							CHANNELS 3 Zrotation Yrotation Xrotation
							JOINT LeftHand
							{
								OFFSET 3.483560 -0.000000 -0.000000
								CHANNELS 3 Zrotation Yrotation Xrotation
								JOINT LeftFingerBase
								{
									OFFSET 0.000000 0.000000 0.000000
									CHANNELS 3 Zrotation Yrotation Xrotation
									JOINT LeftHandIndex1
									{
										OFFSET 0.715260 -0.000000 -0.000000
										CHANNELS 3 Zrotation Yrotation Xrotation
										End Site
										{
											OFFSET 0.000000 0.000000 0.000000
										}
									}
								}
								JOINT LThumb
								{
									OFFSET 0.000000 0.000000 0.000000
									CHANNELS 3 Zrotation Yrotation Xrotation
									End Site
									{
										OFFSET 0.000000 0.000000 0.000000
									}
								}
							}
						}
					}
				}
				JOINT RightShoulder
				{
					OFFSET 0.000000 0.000000 0.000000
					CHANNELS 3 Zrotation Yrotation Xrotation
					JOINT RightArm
					{
						OFFSET -3.136600 1.374050 -0.404650
						CHANNELS 3 Zrotation Yrotation Xrotation
						JOINT RightForeArm
						{
							OFFSET -5.241900 -0.000000 -0.000000
							CHANNELS 3 Zrotation Yrotation Xrotation
							JOINT RightHand
							{
								OFFSET -3.444170 -0.000000 -0.000000
								CHANNELS 3 Zrotation Yrotation Xrotation
								JOINT RightFingerBase
								{
									OFFSET 0.000000 0.000000 0.000000
									CHANNELS 3 Zrotation Yrotation Xrotation
									JOINT RightHandIndex1
									{
										OFFSET -0.622530 -0.000000 -0.000000
										CHANNELS 3 Zrotation Yrotation Xrotation
										End Site
										{
											OFFSET 0.000000 0.000000 0.000000
										}
									}
								}
								JOINT RThumb
								{
									OFFSET 0.000000 0.000000 0.000000
									CHANNELS 3 Zrotation Yrotation Xrotation
									End Site
									{
										OFFSET 0.000000 0.000000 0.000000
									}
								}
							}
						}
					}
				}
			}
		}
	}
}
}
MOTION
Frames: 9
Frame Time: 0.008333
1.463815 17.436242 0.550646 -178.260808 -52.831696 -164.018818 1.643849 -6.694566 -9.350399 0.326510 -7.092106 -3.514626 -6.769006 -6.963119 3.109151 18.995149 -17.939675 -9.708633 -0.332297 0.017060 -0.508838 0.000000 0.000000 0.000000 20.281815 3.391260 4.505117 9.422353 -43.375174 -49.519466 -1.779317 3.424298 0.025643 -10.762393 12.610984 -1.208604 0.132324 -0.023012 0.000000 0.000000 0.000000 0.000000 0.000000 0.000000 0.000000 6.845811 -18.671761 -4.473796 79.245254 27.334228 30.597180 -178.075799 52.910815 179.696294 -31.297740 41.052848 -12.778545 0.570993 -1.792161 -0.000000 0.000000 0.000000 0.000000 0.000000 0.000000 0.000000 
1.452697 17.432545 0.559494 -178.257714 -53.056938 -164.154659 1.923648 -6.569809 -9.309422 0.375003 -6.992215 -3.510808 -6.777124 -6.860828 3.116627 18.620531 -18.150456 -9.744599 -0.325032 0.018115 -0.518698 0.000000 0.000000 0.000000 19.342188 3.859779 4.342021 9.812612 -45.343990 -50.305120 -1.645712 3.814437 0.025158 -9.714521 11.541722 -0.993942 0.113287 0.009757 0.000000 0.000000 0.000000 0.000000 0.000000 0.000000 0.000000 6.306771 -18.787622 -4.465791 79.347153 26.484588 30.139618 -177.990038 52.730838 179.691781 -31.213774 40.990742 -12.720172 0.561795 -1.788891 -0.000000 0.000000 0.000000 0.000000 0.000000 0.000000 0.000000 
1.443129 17.428199 0.569089 -178.263334 -53.353590 -164.306270 2.197527 -6.456110 -9.260904 0.419307 -6.897092 -3.516633 -6.779245 -6.767289 3.094013 18.194149 -18.306967 -9.722623 -0.355358 0.015122 -0.511171 0.000000 0.000000 0.000000 18.582698 4.012920 4.110977 8.381262 -46.357594 -49.886482 -1.307474 1.509380 0.024189 -7.855890 11.105227 -0.768601 0.083904 0.054106 0.000000 0.000000 0.000000 0.000000 0.000000 0.000000 0.000000 5.770657 -18.822909 -4.444188 79.420367 25.595670 29.654825 -177.918841 52.537153 179.687713 -31.209738 40.907616 -12.690329 0.557253 -1.787698 -0.000000 0.000000 0.000000 0.000000 0.000000 0.000000 0.000000 
1.435059 17.423099 0.578728 -178.284512 -53.736338 -164.443847 2.440136 -6.355555 -9.204829 0.453170 -6.810472 -3.533535 -6.797642 -6.684887 3.014724 17.778467 -18.415368 -9.629425 -0.409237 0.008869 -0.482633 0.000000 0.000000 0.000000 17.898726 3.925706 3.801816 6.463594 -47.077692 -49.172719 -0.893987 -1.211029 0.020909 -5.524694 9.975033 -0.480574 0.051343 0.120007 -0.000000 0.000000 0.000000 0.000000 0.000000 0.000000 0.000000 5.294841 -18.813484 -4.399355 79.437817 24.677885 29.150000 -177.855004 52.327940 179.683967 -31.279719 40.797013 -12.683342 0.556272 -1.786851 -0.000000 0.000000 0.000000 0.000000 0.000000 0.000000 0.000000 
1.428566 17.417391 0.588885 -178.318828 -54.199657 -164.580781 2.660961 -6.267895 -9.131197 0.477839 -6.732332 -3.559061 -6.833499 -6.613714 2.885919 17.370091 -18.480045 -9.470438 -0.484579 -0.000297 -0.435076 0.000000 0.000000 0.000000 17.275377 3.655098 3.423820 4.096574 -47.518080 -48.010654 -0.447335 -4.358148 0.014442 -3.074509 8.291802 -0.218745 0.022327 0.201919 0.000000 0.000000 0.000000 0.000000 0.000000 0.000000 0.000000 4.876996 -18.777388 -4.334292 79.413516 23.764169 28.647842 -177.802505 52.120083 179.680760 -31.403884 40.667434 -12.693220 0.558260 -1.786111 -0.000000 0.000000 0.000000 0.000000 0.000000 0.000000 0.000000 
1.423231 17.411079 0.598936 -178.375493 -54.738278 -164.692046 2.863952 -6.194762 -9.059038 0.495344 -6.665877 -3.591604 -6.885980 -6.556547 2.731511 16.971969 -18.517589 -9.267470 -0.576088 -0.011469 -0.374993 0.000000 0.000000 0.000000 16.615998 3.326959 2.997547 1.551109 -47.774395 -46.374862 -0.016896 -7.848655 0.004191 -0.743938 6.275953 -0.038694 0.000181 0.291253 -0.000000 0.000000 0.000000 0.000000 0.000000 0.000000 0.000000 4.519158 -18.744689 -4.256455 79.363552 22.897808 28.183186 -177.766804 51.928283 179.678470 -31.554919 40.526408 -12.710770 0.562679 -1.785276 -0.000000 0.000000 0.000000 0.000000 0.000000 0.000000 0.000000 
1.419010 17.404270 0.609108 -178.451651 -55.336943 -164.785972 3.052942 -6.135210 -8.981348 0.506697 -6.610640 -3.627431 -6.953326 -6.512597 2.564861 16.586824 -18.536191 -9.035621 -0.677757 -0.023841 -0.306940 0.000000 0.000000 0.000000 15.932173 3.001195 2.542417 -1.142747 -47.872270 -44.441346 0.377133 -11.672687 -0.009524 1.357125 4.215123 0.046093 -0.013199 0.378413 0.000000 0.000000 0.000000 0.000000 0.000000 0.000000 0.000000 4.216664 -18.727882 -4.170928 79.300530 22.107297 27.773603 -177.749156 51.767999 179.677167 -31.706790 40.377400 -12.725905 0.568598 -1.784008 -0.000000 0.000000 0.000000 0.000000 0.000000 0.000000 0.000000 
1.415818 17.397083 0.619106 -178.550693 -55.978596 -164.855032 3.226745 -6.089391 -8.902114 0.513096 -6.567518 -3.663642 -7.031016 -6.482227 2.402216 16.221188 -18.547350 -8.794984 -0.782983 -0.036504 -0.236685 0.000000 0.000000 0.000000 15.219190 2.746371 2.076766 -3.923222 -47.858555 -42.354287 0.715416 -15.805586 -0.025657 3.190024 2.344160 0.053124 -0.018304 0.455943 0.000000 0.000000 0.000000 0.000000 0.000000 0.000000 0.000000 3.965668 -18.737126 -4.083379 79.233397 21.418505 27.433614 -177.750844 51.646913 179.676912 -31.831980 40.225943 -12.728734 0.575161 -1.782317 -0.000000 0.000000 0.000000 0.000000 0.000000 0.000000 0.000000 
1.413384 17.389643 0.628580 -178.672818 -56.644106 -164.886907 3.383552 -6.057459 -8.830029 0.516344 -6.537706 -3.697659 -7.112235 -6.465896 2.260373 15.883301 -18.563250 -8.568770 -0.885588 -0.048564 -0.170751 0.000000 0.000000 0.000000 14.466250 2.642157 1.613016 -6.719702 -47.812360 -40.221245 0.984438 -20.193308 -0.042903 4.769719 0.799103 0.011996 -0.017288 0.520199 0.000000 0.000000 0.000000 0.000000 0.000000 0.000000 0.000000 3.765508 -18.778028 -3.999881 79.165201 20.854057 27.171330 -177.774693 51.571231 179.677809 -31.901364 40.088282 -12.712761 0.581389 -1.780540 -0.000000 0.000000 0.000000 0.000000 0.000000 0.000000 0.000000 
